HIERARCHY
ROOT hips_JNT
{
	OFFSET -0.000002 -0.004174 1.012281
	CHANNELS 6 Xposition Yposition Zposition Xrotation Yrotation Zrotation
	JOINT spine_JNT
	{
		OFFSET -0.000004 -0.025434 0.093198
		CHANNELS 6 Xposition Yposition Zposition Xrotation Yrotation Zrotation
		JOINT spine1_JNT
		{
			OFFSET 0.000000 0.000000 0.108731
			CHANNELS 6 Xposition Yposition Zposition Xrotation Yrotation Zrotation
			JOINT spine2_JNT
			{
				OFFSET 0.000000 0.059512 0.124264
				CHANNELS 6 Xposition Yposition Zposition Xrotation Yrotation Zrotation
				JOINT neck_JNT
				{
					OFFSET 0.000000 0.014605 0.139797
					CHANNELS 6 Xposition Yposition Zposition Xrotation Yrotation Zrotation
					JOINT head_JNT
					{
						OFFSET 0.000000 -0.020915 0.058702
						CHANNELS 6 Xposition Yposition Zposition Xrotation Yrotation Zrotation
						End Site
						{
							OFFSET 0.000000 0.000000 0.062317
						}
					}
				}
				JOINT l_shoulder_JNT
				{
					OFFSET 0.043991 0.014850 0.128610
					CHANNELS 6 Xposition Yposition Zposition Xrotation Yrotation Zrotation
					JOINT l_arm_JNT
					{
						OFFSET 0.087573 0.000491 -0.023120
						CHANNELS 6 Xposition Yposition Zposition Xrotation Yrotation Zrotation
						JOINT l_forearm_JNT
						{
							OFFSET 0.269001 -0.000000 -0.000001
							CHANNELS 6 Xposition Yposition Zposition Xrotation Yrotation Zrotation
							JOINT l_hand_JNT
							{
								OFFSET 0.230148 0.000000 -0.000000
								CHANNELS 6 Xposition Yposition Zposition Xrotation Yrotation Zrotation
								JOINT l_handThumb1_JNT
								{
									OFFSET 0.036300 -0.021300 -0.007800
									CHANNELS 6 Xposition Yposition Zposition Xrotation Yrotation Zrotation
									JOINT l_handThumb2_JNT
									{
										OFFSET 0.035511 -0.022401 -0.021184
										CHANNELS 6 Xposition Yposition Zposition Xrotation Yrotation Zrotation
										JOINT l_handThumb3_JNT
										{
											OFFSET 0.021591 -0.009635 -0.011163
											CHANNELS 6 Xposition Yposition Zposition Xrotation Yrotation Zrotation
											End Site
											{
												OFFSET 0.000000 0.000000 0.026146
											}
										}
									}
								}
								JOINT l_handIndex1_JNT
								{
									OFFSET 0.105149 -0.021976 -0.000410
									CHANNELS 6 Xposition Yposition Zposition Xrotation Yrotation Zrotation
									JOINT l_handIndex2_JNT
									{
										OFFSET 0.027518 0.001391 -0.001029
										CHANNELS 6 Xposition Yposition Zposition Xrotation Yrotation Zrotation
										JOINT l_handIndex3_JNT
										{
											OFFSET 0.023530 0.000905 -0.000734
											CHANNELS 6 Xposition Yposition Zposition Xrotation Yrotation Zrotation
											End Site
											{
												OFFSET 0.000000 0.000000 0.023559
											}
										}
									}
								}
								JOINT l_handMiddle1_JNT
								{
									OFFSET 0.100671 -0.000596 0.001392
									CHANNELS 6 Xposition Yposition Zposition Xrotation Yrotation Zrotation
									JOINT l_handMiddle2_JNT
									{
										OFFSET 0.039090 0.001191 -0.002884
										CHANNELS 6 Xposition Yposition Zposition Xrotation Yrotation Zrotation
										JOINT l_handMiddle3_JNT
										{
											OFFSET 0.023284 0.000594 -0.000191
											CHANNELS 6 Xposition Yposition Zposition Xrotation Yrotation Zrotation
											End Site
											{
												OFFSET 0.000000 0.000000 0.023292
											}
										}
									}
								}
								JOINT l_handRing1_JNT
								{
									OFFSET 0.094681 0.018098 0.001322
									CHANNELS 6 Xposition Yposition Zposition Xrotation Yrotation Zrotation
									JOINT l_handRing2_JNT
									{
										OFFSET 0.032815 0.000339 -0.002240
										CHANNELS 6 Xposition Yposition Zposition Xrotation Yrotation Zrotation
										JOINT l_handRing3_JNT
										{
											OFFSET 0.022450 0.000084 -0.000702
											CHANNELS 6 Xposition Yposition Zposition Xrotation Yrotation Zrotation
											End Site
											{
												OFFSET 0.000000 0.000000 0.022461
											}
										}
									}
								}
								JOINT l_handPinky1_JNT
								{
									OFFSET 0.084908 0.035841 -0.000778
									CHANNELS 6 Xposition Yposition Zposition Xrotation Yrotation Zrotation
									JOINT l_handPinky2_JNT
									{
										OFFSET 0.025322 0.000170 -0.000731
										CHANNELS 6 Xposition Yposition Zposition Xrotation Yrotation Zrotation
										JOINT l_handPinky3_JNT
										{
											OFFSET 0.019512 -0.000170 0.000251
											CHANNELS 6 Xposition Yposition Zposition Xrotation Yrotation Zrotation
											End Site
											{
												OFFSET 0.000000 0.000000 0.019514
											}
										}
									}
								}
							}
						}
					}
				}
				JOINT r_shoulder_JNT
				{
					OFFSET -0.043978 0.014850 0.128606
					CHANNELS 6 Xposition Yposition Zposition Xrotation Yrotation Zrotation
					JOINT r_arm_JNT
					{
						OFFSET -0.087573 0.000490 -0.023120
						CHANNELS 6 Xposition Yposition Zposition Xrotation Yrotation Zrotation
						JOINT r_forearm_JNT
						{
							OFFSET -0.269000 -0.000000 0.000000
							CHANNELS 6 Xposition Yposition Zposition Xrotation Yrotation Zrotation
							JOINT r_hand_JNT
							{
								OFFSET -0.230149 0.000000 0.000000
								CHANNELS 6 Xposition Yposition Zposition Xrotation Yrotation Zrotation
								JOINT r_handThumb1_JNT
								{
									OFFSET -0.036300 -0.021300 -0.007800
									CHANNELS 6 Xposition Yposition Zposition Xrotation Yrotation Zrotation
									JOINT r_handThumb2_JNT
									{
										OFFSET -0.035512 -0.022401 -0.021180
										CHANNELS 6 Xposition Yposition Zposition Xrotation Yrotation Zrotation
										JOINT r_handThumb3_JNT
										{
											OFFSET -0.021591 -0.009635 -0.011160
											CHANNELS 6 Xposition Yposition Zposition Xrotation Yrotation Zrotation
											End Site
											{
												OFFSET 0.000000 0.000000 0.026145
											}
										}
									}
								}
								JOINT r_handIndex1_JNT
								{
									OFFSET -0.105149 -0.021976 -0.000410
									CHANNELS 6 Xposition Yposition Zposition Xrotation Yrotation Zrotation
									JOINT r_handIndex2_JNT
									{
										OFFSET -0.027518 0.001390 -0.001030
										CHANNELS 6 Xposition Yposition Zposition Xrotation Yrotation Zrotation
										JOINT r_handIndex3_JNT
										{
											OFFSET -0.023530 0.000905 -0.000730
											CHANNELS 6 Xposition Yposition Zposition Xrotation Yrotation Zrotation
											End Site
											{
												OFFSET 0.000000 0.000000 0.023559
											}
										}
									}
								}
								JOINT r_handMiddle1_JNT
								{
									OFFSET -0.100671 -0.000596 0.001400
									CHANNELS 6 Xposition Yposition Zposition Xrotation Yrotation Zrotation
									JOINT r_handMiddle2_JNT
									{
										OFFSET -0.039091 0.001191 -0.002890
										CHANNELS 6 Xposition Yposition Zposition Xrotation Yrotation Zrotation
										JOINT r_handMiddle3_JNT
										{
											OFFSET -0.023284 0.000594 -0.000190
											CHANNELS 6 Xposition Yposition Zposition Xrotation Yrotation Zrotation
											End Site
											{
												OFFSET 0.000000 0.000000 0.023292
											}
										}
									}
								}
								JOINT r_handRing1_JNT
								{
									OFFSET -0.094681 0.018098 0.001330
									CHANNELS 6 Xposition Yposition Zposition Xrotation Yrotation Zrotation
									JOINT r_handRing2_JNT
									{
										OFFSET -0.032816 0.000339 -0.002250
										CHANNELS 6 Xposition Yposition Zposition Xrotation Yrotation Zrotation
										JOINT r_handRing3_JNT
										{
											OFFSET -0.022450 0.000084 -0.000700
											CHANNELS 6 Xposition Yposition Zposition Xrotation Yrotation Zrotation
											End Site
											{
												OFFSET 0.000000 0.000000 0.022461
											}
										}
									}
								}
								JOINT r_handPinky1_JNT
								{
									OFFSET -0.084908 0.035841 -0.000770
									CHANNELS 6 Xposition Yposition Zposition Xrotation Yrotation Zrotation
									JOINT r_handPinky2_JNT
									{
										OFFSET -0.025322 0.000170 -0.000740
										CHANNELS 6 Xposition Yposition Zposition Xrotation Yrotation Zrotation
										JOINT r_handPinky3_JNT
										{
											OFFSET -0.019512 -0.000170 0.000260
											CHANNELS 6 Xposition Yposition Zposition Xrotation Yrotation Zrotation
											End Site
											{
												OFFSET 0.000000 0.000000 0.019515
											}
										}
									}
								}
							}
						}
					}
				}
			}
		}
	}
	JOINT l_upleg_JNT
	{
		OFFSET 0.100614 0.007062 -0.051857
		CHANNELS 6 Xposition Yposition Zposition Xrotation Yrotation Zrotation
		JOINT l_leg_JNT
		{
			OFFSET -0.003486 0.008192 -0.455824
			CHANNELS 6 Xposition Yposition Zposition Xrotation Yrotation Zrotation
			JOINT l_foot_JNT
			{
				OFFSET 0.003491 0.017085 -0.423325
				CHANNELS 6 Xposition Yposition Zposition Xrotation Yrotation Zrotation
				JOINT l_toebase_JNT
				{
					OFFSET 0.000703 -0.128887 -0.081267
					CHANNELS 6 Xposition Yposition Zposition Xrotation Yrotation Zrotation
					End Site
					{
						OFFSET 0.000000 0.000000 0.152370
					}
				}
			}
		}
	}
	JOINT r_upleg_JNT
	{
		OFFSET -0.100610 0.007062 -0.051858
		CHANNELS 6 Xposition Yposition Zposition Xrotation Yrotation Zrotation
		JOINT r_leg_JNT
		{
			OFFSET 0.003486 0.008192 -0.455824
			CHANNELS 6 Xposition Yposition Zposition Xrotation Yrotation Zrotation
			JOINT r_foot_JNT
			{
				OFFSET -0.003492 0.017085 -0.423325
				CHANNELS 6 Xposition Yposition Zposition Xrotation Yrotation Zrotation
				JOINT r_toebase_JNT
				{
					OFFSET -0.000702 -0.128887 -0.081267
					CHANNELS 6 Xposition Yposition Zposition Xrotation Yrotation Zrotation
					End Site
					{
						OFFSET 0.000000 0.000000 0.152370
					}
				}
			}
		}
	}
}
MOTION
Frames: 4
Frame Time: 0.041667
0.001879 0.000428 1.009070 -0.814836 -2.006577 25.757470 -0.000004 -0.025434 0.093198 -0.096296 -0.049453 0.147930 0.000000 0.000000 0.108731 0.000000 -0.000000 0.009892 -0.000000 0.059512 0.124264 -0.029446 0.205610 0.082782 0.000000 0.014605 0.139797 0.961044 7.798788 5.953026 -0.000000 -0.020915 0.058702 9.054508 -0.003430 0.907093 0.043991 0.014850 0.128610 -0.000000 -0.000000 -0.000001 0.087573 0.000491 -0.023120 -54.990365 75.328353 63.626429 0.269001 -0.000000 -0.000000 0.000002 0.000000 -105.596514 0.230148 0.000000 -0.000000 8.518764 -48.652059 26.063008 0.036300 -0.021300 -0.007800 8.095666 4.605609 11.302980 0.035511 -0.022401 -0.021184 2.915758 -7.931967 9.849213 0.021591 -0.009635 -0.011163 14.963785 -1.754280 27.951760 0.105148 -0.021976 -0.000410 -6.411613 46.716708 20.037070 0.027518 0.001390 -0.001029 89.814945 87.078382 -88.366290 0.023530 0.000905 -0.000734 2.211392 41.846213 -1.409408 0.100671 -0.000596 0.001392 -14.961121 59.400236 28.001404 0.039090 0.001191 -0.002884 77.928490 88.284375 -77.669742 0.023284 0.000594 -0.000191 1.149946 42.793679 -0.992140 0.094681 0.018098 0.001322 -26.009902 66.411705 38.576560 0.032815 0.000339 -0.002240 89.072456 89.491884 -89.937376 0.022450 0.000084 -0.000702 0.146152 48.373941 -0.682464 0.084908 0.035842 -0.000778 -36.106723 66.905289 45.304071 0.025322 0.000171 -0.000731 86.184816 92.770641 -90.238690 0.019512 -0.000170 0.000251 -4.820529 57.029382 2.045340 -0.043978 0.014850 0.128606 -0.000000 -0.000000 -0.000001 -0.087573 0.000491 -0.023120 61.831852 -59.087591 44.507883 -0.269000 -0.000000 -0.000000 -0.000003 -0.000001 105.252771 -0.230149 -0.000000 0.000000 2.108271 -19.841638 -3.292876 -0.036300 -0.021300 -0.007800 -7.865059 9.711377 -0.121827 -0.035512 -0.022401 -0.021180 3.282168 6.374318 -9.581678 -0.021591 -0.009635 -0.011160 21.366640 0.104091 -40.049125 -0.105149 -0.021976 -0.000410 -0.655307 -8.676637 -14.118005 -0.027518 0.001391 -0.001030 -0.000000 0.000000 0.000000 -0.023530 0.000905 -0.000730 -0.000000 0.000000 0.000000 -0.100671 -0.000596 0.001400 -0.431371 -13.317260 -5.783870 -0.039091 0.001191 -0.002890 0.000000 -0.000000 0.000001 -0.023284 0.000594 -0.000190 0.000000 -0.000000 0.000001 -0.094681 0.018098 0.001330 -0.123032 -10.437381 -0.807780 -0.032816 0.000340 -0.002250 89.008484 -89.447092 89.936632 -0.022450 0.000084 -0.000700 2.675423 -80.637459 3.527800 -0.084908 0.035841 -0.000770 -1.287532 -30.632876 2.464802 -0.025322 0.000170 -0.000740 86.011821 -92.734257 90.121621 -0.019512 -0.000170 0.000260 -7.829899 -69.032469 -4.532390 0.100614 0.007062 -0.051858 -3.171017 -5.578893 -8.017781 -0.003486 0.008192 -0.455824 -1.281643 0.471776 0.010554 0.003491 0.017085 -0.423325 5.281528 7.141490 -0.543815 0.000703 -0.128887 -0.081267 -0.027293 -0.000000 0.009892 -0.100610 0.007062 -0.051858 9.444388 6.088482 1.194395 0.003486 0.008192 -0.455824 -1.281654 -0.471822 -0.010554 -0.003492 0.017085 -0.423325 -6.452274 -3.949175 0.041207 -0.000702 -0.128887 -0.081267 -0.005686 0.000000 0.039563 
0.001847 0.000390 1.006140 -0.991136 -1.882722 26.202665 -0.000004 -0.025434 0.093198 -0.106543 -0.138615 0.278268 0.000000 0.000000 0.108731 0.000000 0.000000 0.039565 0.000000 0.059512 0.124264 -0.035502 0.124998 0.163507 -0.000000 0.014605 0.139797 0.538609 7.864533 6.657802 0.000000 -0.020915 0.058702 9.916859 -0.284813 0.087137 0.043991 0.014850 0.128610 0.000000 0.000000 -0.000002 0.087574 0.000491 -0.023120 -54.414782 76.061308 62.954605 0.269001 -0.000000 -0.000000 0.000001 0.000005 -105.156506 0.230148 -0.000000 -0.000000 6.954535 -50.100933 24.258822 0.036300 -0.021300 -0.007800 8.811468 5.935401 10.489516 0.035511 -0.022401 -0.021184 2.508842 -7.659315 9.036301 0.021591 -0.009635 -0.011163 14.766539 -1.778990 27.585674 0.105149 -0.021976 -0.000410 -6.563655 47.224577 20.203435 0.027518 0.001390 -0.001029 89.814932 87.078382 -88.366262 0.023530 0.000905 -0.000734 2.209344 41.821962 -1.407730 0.100671 -0.000596 0.001392 -15.074277 59.540508 28.121168 0.039090 0.001191 -0.002884 77.928470 88.284375 -77.669694 0.023284 0.000594 -0.000191 1.164609 43.103999 -1.006023 0.094681 0.018098 0.001322 -25.379844 66.044193 37.922218 0.032815 0.000339 -0.002241 89.072552 89.491884 -89.937520 0.022450 0.000084 -0.000702 0.159073 49.320335 -0.703532 0.084908 0.035841 -0.000778 -36.509605 66.797413 45.938841 0.025322 0.000170 -0.000731 86.184877 92.770641 -90.238683 0.019512 -0.000170 0.000251 -4.872479 57.329589 2.085137 -0.043978 0.014850 0.128606 0.000000 0.000000 -0.000002 -0.087573 0.000491 -0.023120 63.894275 -55.767555 47.036764 -0.269001 -0.000000 -0.000000 -0.000000 -0.000005 104.607496 -0.230149 0.000000 -0.000000 -0.284084 -16.482116 -5.282082 -0.036300 -0.021300 -0.007800 -7.954534 9.909931 -0.237443 -0.035512 -0.022400 -0.021180 3.916861 6.408719 -10.653015 -0.021591 -0.009635 -0.011160 20.469211 0.411116 -38.324209 -0.105149 -0.021976 -0.000410 -0.600690 -8.182992 -13.893266 -0.027518 0.001391 -0.001030 -0.000001 -0.000001 -0.000000 -0.023530 0.000905 -0.000730 -0.000001 -0.000001 -0.000000 -0.100671 -0.000596 0.001400 -0.386624 -12.861279 -5.516946 -0.039091 0.001191 -0.002890 -0.000000 -0.000000 -0.000000 -0.023284 0.000595 -0.000190 -0.000000 -0.000000 -0.000000 -0.094681 0.018098 0.001330 -0.143970 -12.887428 -0.709247 -0.032816 0.000339 -0.002250 89.008525 -89.447092 89.936782 -0.022450 0.000084 -0.000700 2.753407 -80.849878 3.607516 -0.084908 0.035842 -0.000770 -1.354619 -31.627727 2.384192 -0.025322 0.000170 -0.000740 86.011828 -92.734257 90.121614 -0.019512 -0.000170 0.000260 -7.889630 -69.187009 -4.586001 0.100614 0.007062 -0.051858 -3.169709 -5.793524 -7.997055 -0.003486 0.008192 -0.455824 -1.281643 0.471778 0.010553 0.003491 0.017085 -0.423325 5.396259 7.165447 -1.053565 0.000703 -0.128887 -0.081267 -0.034276 -0.000003 0.019782 -0.100610 0.007062 -0.051858 9.673873 5.813679 1.197596 0.003486 0.008192 -0.455824 -1.281654 -0.471826 -0.010554 -0.003492 0.017085 -0.423325 -6.566095 -3.876062 -0.396386 -0.000702 -0.128887 -0.081267 -0.023744 0.000000 0.039563 
0.001327 -0.000148 1.003502 -1.180523 -1.877675 26.926552 -0.000004 -0.025434 0.093198 -0.124353 -0.256243 0.456343 0.000000 0.000000 0.108731 0.000000 0.000000 0.051857 0.000000 0.059512 0.124264 -0.042499 0.043889 0.282227 0.000000 0.014605 0.139797 0.115862 8.061134 7.415641 -0.000000 -0.020915 0.058702 10.906429 -0.661304 -1.003949 0.043991 0.014850 0.128610 0.000000 -0.000000 -0.000002 0.087573 0.000491 -0.023120 -49.885677 77.180864 58.255633 0.269001 -0.000000 -0.000001 0.000001 -0.000009 -104.611492 0.230148 0.000000 -0.000000 7.183856 -50.592700 23.192954 0.036300 -0.021300 -0.007800 9.703723 7.380083 9.850185 0.035511 -0.022400 -0.021184 2.347677 -7.239650 8.536703 0.021591 -0.009634 -0.011163 14.367436 -1.825078 26.845551 0.105148 -0.021976 -0.000410 -6.682637 47.612842 20.333611 0.027518 0.001391 -0.001029 82.209345 87.056259 -80.765587 0.023530 0.000905 -0.000734 2.182314 41.499338 -1.385610 0.100671 -0.000596 0.001392 -14.927320 59.352561 27.968457 0.039090 0.001191 -0.002884 77.928415 88.284375 -77.669640 0.023284 0.000594 -0.000191 1.162743 43.064698 -1.004258 0.094681 0.018098 0.001322 -24.266163 65.347179 36.771061 0.032815 0.000339 -0.002240 89.072217 89.491884 -89.937759 0.022450 0.000084 -0.000702 0.169339 50.034079 -0.719921 0.084908 0.035841 -0.000778 -36.135071 66.476851 45.711885 0.025322 0.000170 -0.000731 86.184898 92.770641 -90.238718 0.019512 -0.000170 0.000251 -4.903285 57.505446 2.108826 -0.043978 0.014850 0.128606 0.000000 -0.000000 -0.000002 -0.087573 0.000491 -0.023120 65.160093 -52.164566 48.752811 -0.269000 -0.000000 0.000000 -0.000008 -0.000005 103.497966 -0.230149 0.000000 -0.000000 -2.470559 -12.988418 -6.786523 -0.036300 -0.021300 -0.007800 -7.853322 9.902052 -0.402835 -0.035512 -0.022401 -0.021180 4.556280 6.501491 -11.770667 -0.021591 -0.009635 -0.011160 19.577726 0.686610 -36.622802 -0.105149 -0.021976 -0.000410 -0.535954 -7.545089 -13.647755 -0.027518 0.001391 -0.001030 -0.000001 -0.000001 0.000003 -0.023530 0.000905 -0.000730 -0.000001 -0.000001 0.000003 -0.100671 -0.000596 0.001400 -0.349571 -12.806159 -5.190796 -0.039091 0.001191 -0.002890 0.000001 0.000000 -0.000001 -0.023284 0.000594 -0.000190 0.000001 0.000000 -0.000001 -0.094681 0.018098 0.001330 -0.162833 -16.100281 -0.562180 -0.032816 0.000339 -0.002250 89.008478 -89.447092 89.936734 -0.022450 0.000084 -0.000700 2.875493 -81.163548 3.732178 -0.084908 0.035842 -0.000770 -1.446913 -32.973606 2.279263 -0.025322 0.000171 -0.000740 86.011766 -92.734257 90.121635 -0.019512 -0.000170 0.000260 -7.960581 -69.367797 -4.649796 0.100614 0.007062 -0.051858 -3.146969 -5.932015 -8.120256 -0.003486 0.008192 -0.455824 -1.281643 0.471777 0.010554 0.003491 0.017085 -0.423325 5.535825 7.218270 -1.685661 0.000703 -0.128887 -0.081267 -0.429748 0.001909 -0.231751 -0.100610 0.007062 -0.051858 10.042005 5.542953 1.088177 0.003486 0.008192 -0.455824 -1.281654 -0.471824 -0.010555 -0.003492 0.017085 -0.423325 -6.739964 -3.732045 -0.991746 -0.000702 -0.128887 -0.081267 -0.040976 -0.000000 0.009890 
0.000273 -0.001423 1.001270 -1.348385 -2.073662 27.944303 -0.000004 -0.025434 0.093198 -0.146088 -0.379352 0.669300 -0.000000 0.000000 0.108731 0.000000 -0.000000 -0.000001 0.000000 0.059512 0.124264 -0.052583 -0.025231 0.433387 0.000000 0.014605 0.139797 -0.202200 8.481142 8.222501 -0.000000 -0.020915 0.058702 11.961855 -1.157023 -2.433341 0.043991 0.014850 0.128610 0.000000 0.000000 -0.000000 0.087574 0.000490 -0.023120 -38.777754 78.215215 46.790532 0.269001 -0.000000 -0.000001 -0.000000 -0.000002 -103.835008 0.230148 -0.000000 -0.000001 8.609601 -50.611521 22.992734 0.036300 -0.021300 -0.007800 10.672099 8.730552 9.605982 0.035511 -0.022401 -0.021184 2.586547 -6.620483 8.570176 0.021591 -0.009635 -0.011163 13.701544 -1.890381 25.612286 0.105148 -0.021976 -0.000410 -6.713776 47.713038 20.367739 0.027519 0.001390 -0.001029 63.980984 86.769432 -62.550066 0.023530 0.000905 -0.000734 2.129331 40.856375 -1.342443 0.100671 -0.000596 0.001392 -14.426659 58.697915 27.445138 0.039090 0.001191 -0.002884 77.928442 88.284375 -77.669756 0.023284 0.000594 -0.000191 1.134307 42.458385 -0.977344 0.094681 0.018098 0.001322 -22.662277 64.239999 35.116164 0.032815 0.000339 -0.002240 89.072476 89.491884 -89.937376 0.022450 0.000084 -0.000702 0.172864 50.271637 -0.725460 0.084908 0.035842 -0.000778 -34.740022 65.790643 44.401479 0.025322 0.000171 -0.000731 86.184836 92.770641 -90.238738 0.019512 -0.000170 0.000251 -4.899510 57.483985 2.105916 -0.043978 0.014850 0.128606 0.000000 0.000000 -0.000000 -0.087573 0.000491 -0.023120 65.511794 -48.370457 49.374317 -0.269000 -0.000000 -0.000000 0.000002 -0.000008 102.063025 -0.230149 0.000000 0.000000 -4.248151 -8.702114 -6.597406 -0.036300 -0.021300 -0.007800 -7.412435 9.534556 -0.671856 -0.035512 -0.022401 -0.021180 5.054279 6.647864 -12.685078 -0.021591 -0.009635 -0.011160 18.941064 0.865766 -35.414323 -0.105149 -0.021975 -0.000410 -0.470385 -6.799138 -13.474128 -0.027518 0.001391 -0.001030 -0.000000 -0.000000 -0.000002 -0.023530 0.000905 -0.000730 -0.000000 -0.000000 -0.000002 -0.100671 -0.000596 0.001400 -0.341962 -13.561846 -4.931857 -0.039091 0.001191 -0.002890 -0.000000 -0.000000 0.000003 -0.023284 0.000595 -0.000190 -0.000000 -0.000000 0.000003 -0.094681 0.018098 0.001330 -0.172315 -19.955870 -0.371239 -0.032816 0.000339 -0.002250 89.008471 -89.447092 89.936762 -0.022450 0.000084 -0.000700 3.041800 -81.557308 3.901683 -0.084908 0.035842 -0.000770 -1.571214 -34.631511 2.129851 -0.025322 0.000170 -0.000740 86.011848 -92.734257 90.121628 -0.019512 -0.000170 0.000260 -8.011840 -69.496533 -4.695952 0.100614 0.007062 -0.051858 -5.827760 -5.499038 -8.710417 -0.003486 0.008192 -0.455824 4.450970 0.471778 0.019228 0.003491 0.017085 -0.423325 2.716039 7.302989 -2.433856 0.000703 -0.128887 -0.081267 -0.817967 0.002229 -0.306436 -0.100610 0.007062 -0.051858 9.109540 5.324309 0.993186 0.003486 0.008192 -0.455824 1.742987 -0.471821 0.014355 -0.003492 0.017085 -0.423325 -8.554565 -3.509329 -1.766127 -0.000702 -0.128887 -0.081267 -0.807216 -0.002080 0.314005 
